<svg width="24" height="24" viewBox="0 0 24 24" fill="none" xmlns="http://www.w3.org/2000/svg">
<g id="atom">
<path id="Vector" d="M12 13C12.5523 13 13 12.5523 13 12C13 11.4477 12.5523 11 12 11C11.4477 11 11 11.4477 11 12C11 12.5523 11.4477 13 12 13Z" stroke="white" stroke-width="2" stroke-linecap="round" stroke-linejoin="round"/>
<path id="Vector_2" d="M20.2004 20.2C22.2404 18.17 20.2204 12.84 15.7004 8.29999C11.1604 3.77999 5.83037 1.75999 3.80037 3.79999C1.76037 5.82999 3.78037 11.16 8.30037 15.7C12.8404 20.22 18.1704 22.24 20.2004 20.2Z" stroke="white" stroke-width="2" stroke-linecap="round" stroke-linejoin="round"/>
<path id="Vector_3" d="M15.7004 15.7C20.2204 11.16 22.2404 5.82999 20.2004 3.79999C18.1704 1.75999 12.8404 3.77999 8.30037 8.29999C3.78037 12.84 1.76037 18.17 3.80037 20.2C5.83037 22.24 11.1604 20.22 15.7004 15.7Z" stroke="white" stroke-width="2" stroke-linecap="round" stroke-linejoin="round"/>
</g>
</svg>
