<svg width="32" height="32" viewBox="0 0 32 32" fill="none" xmlns="http://www.w3.org/2000/svg">
<rect x="0.888889" y="0.888889" width="30.2222" height="30.2222" rx="6.22222" stroke="#717171" stroke-width="1.77778"/>
<g clip-path="url(#clip0_1572_303)">
<path d="M7.11133 9.85859C7.11133 9.31985 7.30152 8.87541 7.6819 8.52527C8.06229 8.17514 8.55679 8.00004 9.16542 8C9.76315 8 10.2468 8.17239 10.6163 8.51717C10.9967 8.87276 11.1869 9.33606 11.1869 9.90707C11.1869 10.4242 11.0021 10.8551 10.6326 11.1997C10.2522 11.5553 9.7523 11.733 9.13286 11.733H9.11651C8.51878 11.733 8.03515 11.5552 7.66562 11.1997C7.29609 10.8441 7.11133 10.3971 7.11133 9.85859ZM7.32325 24V13.2039H10.9423V24H7.32325ZM12.9475 24H16.5665V17.9717C16.5665 17.5946 16.61 17.3037 16.6969 17.099C16.846 16.7367 17.0842 16.4172 17.3898 16.1696C17.6995 15.9165 18.088 15.7899 18.5554 15.7899C19.7726 15.7899 20.3812 16.6034 20.3812 18.2303V24H24.0002V17.8101C24.0002 16.2155 23.6198 15.006 22.8591 14.1818C22.0983 13.3576 21.093 12.9455 19.8433 12.9455C18.4413 12.9455 17.3491 13.5434 16.5668 14.7394V14.7717H16.5505L16.5668 14.7394V13.2041H12.9475C12.9692 13.549 12.9801 14.6212 12.9801 16.4205C12.9801 18.2199 12.9692 20.7464 12.9475 24Z" fill="#717171"/>
</g>
<defs>
<clipPath id="clip0_1572_303">
<rect width="16.8889" height="16" fill="white" transform="translate(7.11133 8)"/>
</clipPath>
</defs>
</svg>
