<svg width="17" height="16" viewBox="0 0 17 16" fill="none" xmlns="http://www.w3.org/2000/svg">
<g id="Layer_1" clip-path="url(#clip0_1572_304)">
<path id="Vector" d="M0.111328 1.85859C0.111328 1.31985 0.30152 0.875412 0.681902 0.525274C1.06229 0.175136 1.55679 4.46491e-05 2.16542 0C2.76315 0 3.24678 0.17239 3.61631 0.51717C3.9967 0.872756 4.18689 1.33606 4.18689 1.90707C4.18689 2.42424 4.00212 2.85511 3.63259 3.19967C3.25221 3.55525 2.7523 3.73302 2.13286 3.73298H2.11651C1.51878 3.73298 1.03515 3.55521 0.665621 3.19967C0.296093 2.84412 0.111328 2.3971 0.111328 1.85859ZM0.32325 16V5.20385H3.94234V16H0.32325ZM5.94745 16H9.56654V9.9717C9.56654 9.5946 9.61 9.30369 9.69692 9.09897C9.84602 8.73673 10.0842 8.41724 10.3898 8.16964C10.6995 7.91648 11.088 7.7899 11.5554 7.7899C12.7726 7.7899 13.3812 8.60336 13.3812 10.2303V16H17.0002V9.8101C17.0002 8.21545 16.6198 7.00602 15.8591 6.1818C15.0983 5.35758 14.093 4.94547 12.8433 4.94547C11.4413 4.94547 10.3491 5.54343 9.56681 6.73936V6.7717H9.55046L9.56681 6.73936V5.20405H5.94745C5.96921 5.54901 5.98008 6.62117 5.98008 8.42053C5.98008 10.2199 5.96921 12.7464 5.94745 16Z" fill="#717171"/>
</g>
<defs>
<clipPath id="clip0_1572_304">
<rect width="16.8889" height="16" fill="white" transform="translate(0.111328)"/>
</clipPath>
</defs>
</svg>
