<svg width="168" height="24" viewBox="0 0 168 24" fill="none" xmlns="http://www.w3.org/2000/svg">
<g id="WNE3Live">
<path id="Vector" d="M157.834 9.8335C156.945 9.8335 156.5 10.2779 156.5 11.1668V13.0001H162.167V11.1668C162.167 10.2779 161.722 9.8335 160.834 9.8335H157.834ZM167.334 23.3334C163.045 23.7778 159.156 24 155.667 24C154.156 24 152.945 23.5445 152.034 22.6334C151.123 21.7223 150.667 20.5112 150.667 19.0001V11.0002C150.667 9.3335 151.134 8.03351 152.067 7.10019C153.023 6.14464 154.334 5.66687 156 5.66687H162.667C164.334 5.66687 165.634 6.14464 166.567 7.10019C167.522 8.03351 168 9.3335 168 11.0002V17.1668H156.5V18.5001C156.5 18.8334 156.611 19.1112 156.834 19.3334C157.056 19.5556 157.334 19.6667 157.667 19.6667C159.867 19.6667 163.089 19.5001 167.334 19.1667V23.3334Z" fill="#14C7FF"/>
<path id="Vector_2" d="M143.823 6.00037H149.99L143.323 23.6669H136.657L129.99 6.00037H136.157L139.99 18.0003L143.823 6.00037Z" fill="#14C7FF"/>
<path id="Vector_3" d="M128.647 6.66673V23.6666H122.813V11.1667H120.313V6.66673H128.647ZM122.813 0.00012207H128.647V4.66674H122.813V0.00012207Z" fill="#14C7FF"/>
<path id="Vector_4" d="M107.139 19H119.305V23.6666H101.139V0.333496H107.139V19Z" fill="#14C7FF"/>
<path id="Vector_5" d="M91.7942 23.9999C88.0831 23.9999 83.972 23.7777 79.4609 23.3333V18.8333C84.372 19.1667 88.0386 19.3333 90.4608 19.3333C90.9719 19.3333 91.3719 19.1889 91.6608 18.9C91.9719 18.5889 92.1275 18.1778 92.1275 17.6667V16.3333C92.1275 15 91.4608 14.3334 90.1275 14.3334H83.1276V9.66674H89.4608C90.7942 9.66674 91.4608 9.00008 91.4608 7.66676V7.0001C91.4608 5.66678 90.7942 5.00012 89.4608 5.00012H79.7943V0.333496H91.1275C93.3053 0.333496 94.9052 0.833492 95.9274 1.83348C96.9497 2.81125 97.4608 4.31124 97.4608 6.33344C97.4608 7.66676 97.1497 8.75564 96.5274 9.60008C95.9275 10.4223 95.1275 11.0001 94.1275 11.3334C95.9275 11.8223 97.1497 13.0223 97.7941 14.9334C98.0163 15.6222 98.1274 16.4222 98.1274 17.3333V17.6667C98.1274 19.8444 97.6163 21.4444 96.5941 22.4666C95.5719 23.4888 93.9719 23.9999 91.7942 23.9999Z" fill="white"/>
<path id="Vector_6" d="M78.1356 23.6666H59.6357V0.333496H78.1356V5.00012H65.6357V9.50008H75.4689V14.1667H65.6357V19H78.1356V23.6666Z" fill="white"/>
<path id="Vector_7" d="M55.6203 23.6666H49.287L41.2871 9.66674V23.6666H35.2871V0.333496H41.6204L49.6203 14.3334V0.333496H55.6203V23.6666Z" fill="white"/>
<path id="Vector_8" d="M19.6046 0.333496L23.6046 15.3334L27.1046 0.333496H33.6045L27.2712 23.6666H20.938L16.938 9.16675L12.938 23.6666H6.60476L0.271484 0.333496H6.77142L10.2714 15.3334L14.2714 0.333496H19.6046Z" fill="white"/>
</g>
</svg>
